# xmcd
#
# Track frame offsets:
#	150
#	11112
#	26720
#	37920
#	57875
#	67670
#	79995
#	94937
#	120675
#	147360
#	162012
#	175630
#	195975
#	207987
#	225825
#	236625
#	254645
#	267075
#	280487
#
# Disc length: 3925 seconds
#
# Revision: 1
# Processed by: cddbd v1.5.2PL0 Copyright (c) Steve Scherf et al.
# Submitted via: audiograbber 1.83.01
#
DISCID=fe0f5313
DTITLE=Various Artist - Kings of Blues CD1
DYEAR=1900
DGENRE=Blues
TTITLE0=Muddy Waters - Key to the Highway (1972)
TTITLE1=Blues Inc. - Hoochie Coochie Man (1962)
TTITLE2=Eric Clapton - Snake Drive (1966)
TTITLE3=Chris Farlowe - The Thrill is Gone (1985)
TTITLE4=John Mayall - I'm Your Witchdoctor (1965)
TTITLE5=Howlin' Wolf - Spoonful (1960)
TTITLE6=Steamhammer - Juniors Wailing(1960)
TTITLE7=Muddy Waters - Mean Disposition (1969)
TTITLE8=Howlin' Wolf - Red Rooster (Rehearsal and Take)(1971)
TTITLE9=Rod Stewart - So Much to Say (So Little Time)(1968)
TTITLE10=Peter Green - Born on the Wild Side (1982)
TTITLE11=Procol Harum - Whiskey Train (1970)
TTITLE12=The All Stars - Steelin' (1966)
TTITLE13=John Mayall and Bluesbreakers - Telephone Blues (1965)
TTITLE14=Chuck Berry - Thirty Days (1955)
TTITLE15=Bo Diddley and Cookie Vee - Don't Want No Lying Woman (1973)
TTITLE16=Johnny Winter - Leaving Blues (1969)
TTITLE17=Muddy Waters - Got My Mojo Working (1960)
TTITLE18=Willie Dixon - Walking the Blues (1955)
EXTD=Correct spelling of Artists and Titles.\nWith track dates.
EXTT0=
EXTT1=
EXTT2=
EXTT3=
EXTT4=
EXTT5=
EXTT6=
EXTT7=
EXTT8=
EXTT9=
EXTT10=
EXTT11=
EXTT12=
EXTT13=
EXTT14=
EXTT15=
EXTT16=
EXTT17=
EXTT18=
PLAYORDER=
